# xmcd
#
# Track frame offsets: 
#        150
#        29102
#        55357
#        62755
#        87887
#        123782
#        151952
#        162597
#        178937
#        192135
#        219020
#        251155
#
# Disc length: 3479 seconds
#
# Revision: 1
# Processed by: cddbd v1.5.2PL0 Copyright (c) Steve Scherf et al.
# Submitted via: ExactAudioCopy v1.3
#
DISCID=a70d950c
DTITLE=Mauro Hector - Sonoridades
DYEAR=2002
DGENRE=Jazz
TTITLE0=Voltando Pra Casa
TTITLE1=Studio 14
TTITLE2=Ana
TTITLE3=Teia de Aranha
TTITLE4=Blues for Ease
TTITLE5=Sonoridades
TTITLE6=Pé de Moleque
TTITLE7=Tava na Hora
TTITLE8=Druídas
TTITLE9=Primeiro Momento
TTITLE10=Hendrixiando
TTITLE11=Rosa Blue
EXTD=YEAR: 2002
EXTT0=
EXTT1=
EXTT2=
EXTT3=
EXTT4=
EXTT5=
EXTT6=
EXTT7=
EXTT8=
EXTT9=
EXTT10=
EXTT11=
PLAYORDER=
